<?xml version="1.0" standalone="no"?>
<!DOCTYPE svg PUBLIC "-//W3C//DTD SVG 20010904//EN"
 "http://www.w3.org/TR/2001/REC-SVG-20010904/DTD/svg10.dtd">
<svg version="1.0" xmlns="http://www.w3.org/2000/svg"
 width="126.000000pt" height="124.000000pt" viewBox="0 0 126.000000 124.000000"
 preserveAspectRatio="xMidYMid meet">

<g transform="translate(0.000000,124.000000) scale(0.100000,-0.100000)"
fill="#000000" stroke="none">
<path d="M363 994 c-25 -15 -64 -28 -98 -31 -50 -5 -56 -8 -53 -27 2 -15 13
-22 41 -27 66 -10 66 -14 67 -304 0 -295 -1 -300 -71 -311 -29 -5 -39 -11 -39
-25 0 -18 10 -19 165 -19 158 0 165 1 165 20 0 14 -7 20 -21 20 -33 0 -60 19
-75 55 -11 27 -14 101 -14 355 0 249 -3 320 -12 320 -7 -1 -32 -12 -55 -26z"/>
<path d="M865 996 c-104 -33 -178 -89 -236 -178 -106 -165 -89 -396 39 -509
133 -117 316 -53 368 130 38 128 -18 272 -119 310 -62 24 -166 2 -221 -47 -18
-16 -19 -16 -12 23 23 122 127 222 253 241 33 5 43 11 43 25 0 15 -7 19 -37
18 -21 0 -56 -6 -78 -13z m23 -330 c71 -82 61 -293 -17 -353 -24 -18 -93 -15
-117 5 -12 9 -29 29 -38 43 -46 72 -62 233 -28 277 31 40 74 62 123 62 41 0
51 -4 77 -34z"/>
</g>
</svg>
