<svg xmlns="http://www.w3.org/2000/svg" xmlns:xlink="http://www.w3.org/1999/xlink" version="1.1" width="1000" height="1000" viewBox="0 0 1000 1000" xml:space="preserve">
<desc>Created with Fabric.js 3.5.0</desc>
<defs>
</defs>
<rect x="0" y="0" width="100%" height="100%" fill="rgba(255,255,255,0)"/>
<g transform="matrix(0.1126 0 0 -0.0837 500.0197 500.3358)" id="621931">
<path style="stroke: rgb(0,0,0); stroke-width: 1; stroke-dasharray: none; stroke-linecap: butt; stroke-dashoffset: 0; stroke-linejoin: miter; stroke-miterlimit: 4; is-custom-font: none; font-file-url: none; fill: none; fill-rule: nonzero; opacity: 1;" vector-effect="non-scaling-stroke" transform=" translate(-3332.9803, -5975.0404)" d="M 3327 11936 c -25 -64 -53 -416 -102 -1251 c -83 -1429 -143 -2122 -241 -2790 c -56 -378 -140 -781 -201 -965 l -18 -55 l -185 -17 c -102 -9 -194 -17 -206 -17 c -17 -1 -25 11 -43 72 c -34 112 -97 438 -135 702 c -74 507 -142 1140 -241 2225 c -59 647 -82 877 -92 925 l -6 30 l -8 -29 c -13 -48 -46 -330 -99 -866 c -186 -1864 -306 -2691 -463 -3172 l -31 -98 l -111 -36 c -60 -20 -143 -50 -183 -65 c -40 -16 -76 -29 -81 -29 c -9 0 -87 229 -120 350 c -92 339 -174 841 -276 1680 c -78 635 -113 871 -135 893 c -24 26 -76 -404 -159 -1323 c -62 -678 -194 -2302 -188 -2305 c 1 -1 40 -17 87 -35 c 47 -18 166 -72 265 -120 c 732 -356 1359 -918 1850 -1660 c 596 -900 922 -1958 1050 -3415 c 42 -473 57 -577 85 -560 c 18 11 30 84 50 305 c 82 912 153 1365 301 1915 c 445 1666 1468 2935 2831 3511 c 73 31 136 59 140 63 c 3 3 0 83 -7 176 c -8 94 -35 429 -60 745 c -133 1670 -241 2739 -275 2704 c -23 -25 -54 -226 -139 -924 c -103 -834 -164 -1211 -257 -1585 c -40 -160 -122 -415 -134 -415 c -5 0 -48 15 -97 34 c -48 18 -131 47 -184 65 l -95 31 l -22 63 c -106 308 -215 909 -317 1748 c -43 357 -89 785 -160 1499 c -52 515 -76 735 -92 819 c -15 85 -25 -1 -113 -964 c -153 -1670 -253 -2453 -367 -2864 l -26 -93 l -51 5 c -28 4 -120 12 -205 18 l -154 13 l -12 30 c -41 99 -128 487 -179 796 c -111 676 -179 1415 -266 2890 c -57 969 -81 1266 -109 1342 c -7 19 -8 19 -14 4 z" stroke-linecap="round"/>
</g>
</svg>